<svg width="32" height="32" viewBox="0 0 32 32" fill="none" xmlns="http://www.w3.org/2000/svg">
<rect width="32" height="32" rx="16" fill="white"/>
<path d="M27.3586 18.8945L24.1646 16.3843C23.9691 16.2311 23.9691 15.9795 24.1646 15.8258L27.3588 13.3162C27.5549 13.1627 27.6369 12.9033 27.5411 12.7401C27.4452 12.5774 27.1774 12.5195 26.9466 12.6114L23.1485 14.1242C22.9176 14.2171 22.7001 14.0905 22.6654 13.8439L22.0943 9.78912C22.059 9.5426 21.8736 9.34082 21.6817 9.34082C21.4906 9.34082 21.3054 9.5426 21.2711 9.78896L20.6996 13.844C20.6646 14.0907 20.4474 14.2169 20.2162 14.1244L16.4809 12.6367C16.2492 12.5445 15.8719 12.5445 15.6408 12.6367L11.9049 14.1244C11.6739 14.2169 11.4563 14.0907 11.4217 13.844L10.851 9.78896C10.8157 9.5426 10.6306 9.34082 10.4394 9.34082C10.2476 9.34082 10.0621 9.5426 10.0276 9.78896L9.45613 13.844C9.4215 14.0907 9.20409 14.2169 8.97305 14.1244L5.17508 12.6119C4.94419 12.5195 4.67684 12.5777 4.58093 12.7403C4.48517 12.9036 4.56683 13.1631 4.76233 13.3164L7.9568 15.826C8.15245 15.9796 8.15245 16.2312 7.9568 16.3846L4.76233 18.8945C4.56622 19.048 4.48501 19.3229 4.58062 19.5049C4.67668 19.6872 4.94404 19.7604 5.17462 19.6679L8.93858 18.1563C9.16993 18.0639 9.38504 18.1897 9.41736 18.4364L9.96035 22.5265C9.99313 22.7727 10.2082 22.9744 10.4384 22.9744C10.6682 22.9744 10.8834 22.7729 10.9164 22.5265L11.4603 18.4364C11.4925 18.1897 11.7085 18.0641 11.9386 18.1563L15.6408 19.6422C15.8716 19.735 16.2491 19.735 16.48 19.6422L20.1816 18.1563C20.412 18.0639 20.6274 18.1897 20.6604 18.4364L21.2043 22.5265C21.2367 22.7727 21.452 22.9744 21.6815 22.9744C21.9116 22.9744 22.1269 22.7729 22.1595 22.5265L22.7034 18.4364C22.7365 18.1897 22.9516 18.0641 23.1821 18.1563L26.9465 19.6679C27.1763 19.7604 27.4444 19.6871 27.5403 19.505C27.6364 19.3233 27.5547 19.0485 27.3588 18.8949L27.3586 18.8945ZM19.2323 16.4161L16.4193 18.5818C16.2224 18.7335 15.8995 18.7335 15.7032 18.5818L12.8893 16.4161C12.6926 16.2645 12.691 16.0147 12.8862 15.8607L15.7053 13.6402C15.9005 13.4863 16.2206 13.4863 16.4159 13.6402L19.235 15.8607C19.4307 16.0146 19.4291 16.2643 19.232 16.4163L19.2323 16.4161Z" fill="black"/>
</svg>
