<svg width="100" height="100" viewBox="0 0 100 100" fill="none" xmlns="http://www.w3.org/2000/svg">
<rect width="100" height="100" rx="50" fill="white"/>
<path d="M85.4958 59.0456L75.5145 51.2012C74.9036 50.7224 74.9036 49.9363 75.5145 49.456L85.4962 41.6135C86.1091 41.1338 86.3652 40.3232 86.066 39.8133C85.7663 39.3048 84.9294 39.1238 84.2083 39.4111L72.3392 44.1386C71.6176 44.4288 70.9378 44.0333 70.8296 43.2624L69.0446 30.5914C68.9345 29.821 68.3552 29.1904 67.7553 29.1904C67.1582 29.1904 66.5794 29.821 66.4721 30.5909L64.6862 43.2629C64.5771 44.0338 63.8982 44.4283 63.1757 44.1391L51.5028 39.4901C50.7789 39.2019 49.5997 39.2019 48.8777 39.4901L37.2029 44.1391C36.4809 44.4283 35.801 44.0338 35.6928 43.2629L33.9093 30.5909C33.7992 29.821 33.2208 29.1904 32.6233 29.1904C32.0239 29.1904 31.4441 29.821 31.3363 30.5909L29.5505 43.2629C29.4423 44.0338 28.7629 44.4283 28.0408 44.1391L16.1722 39.4125C15.4507 39.1238 14.6152 39.3058 14.3155 39.8137C14.0162 40.3241 14.2714 41.1352 14.8823 41.614L24.865 49.4565C25.4765 49.9367 25.4765 50.7229 24.865 51.2022L14.8823 59.0456C14.2695 59.5254 14.0157 60.3843 14.3145 60.9531C14.6147 61.5229 15.4502 61.7517 16.1708 61.4626L27.9331 56.7389C28.6561 56.4501 29.3283 56.8432 29.4293 57.6141L31.1261 70.3958C31.2286 71.1652 31.9008 71.7953 32.62 71.7953C33.3381 71.7953 34.0108 71.1656 34.1138 70.3958L35.8135 57.6141C35.914 56.8432 36.5891 56.4506 37.3082 56.7389L48.8777 61.3821C49.5987 61.6723 50.7784 61.6723 51.5 61.3821L63.0675 56.7389C63.7876 56.4501 64.4607 56.8432 64.5637 57.6141L66.2634 70.3958C66.3649 71.1652 67.0376 71.7953 67.7548 71.7953C68.4739 71.7953 69.1466 71.1656 69.2486 70.3958L70.9483 57.6141C71.0517 56.8432 71.7239 56.4506 72.444 56.7389L84.2078 61.4626C84.926 61.7517 85.7639 61.5224 86.0636 60.9536C86.3638 60.3858 86.1086 59.5268 85.4962 59.0471L85.4958 59.0456ZM60.1009 51.3008L51.3104 58.0684C50.6951 58.5424 49.6858 58.5424 49.0725 58.0684L40.2791 51.3008C39.6644 50.8268 39.6596 50.0464 40.2695 49.5652L49.0792 42.6261C49.6892 42.145 50.6894 42.145 51.2998 42.6261L60.1095 49.5652C60.7209 50.0459 60.7161 50.8263 60.0999 51.3013L60.1009 51.3008Z" fill="black"/>
</svg>
